name GIL06_xslow1Moments.mot
datacolumns 7
datarows 81
range 0.37500000 1.04166675
endheader

                time	          RHipMoment	          LHipMoment	         RKneeMoment	         LKneeMoment	        RAnkleMoment	        LAnkleMoment	
          0.37500000	        -27.48870087	        282.27157593	        -58.74539948	       -142.41860962	        -11.29587936	         84.84963226	
          0.38333336	        -39.07351303	        284.66629028	        -54.25567627	       -150.51754761	        -12.09472752	         97.25927734	
          0.39166668	        -52.98500061	        287.83883667	        -49.10580826	       -159.19964600	        -13.32560539	        109.58328247	
          0.40000001	        -66.23363495	        287.98541260	        -43.25719070	       -167.04977417	        -15.02122402	        122.61743927	
          0.40833333	        -79.36859894	        283.13653564	        -36.35478592	       -173.26762390	        -17.07573700	        135.09625244	
          0.41666669	        -91.37081909	        277.09179688	        -28.26474380	       -180.47483826	        -19.28192520	        148.01309204	
          0.42500001	       -103.20327759	        266.33590698	        -18.68928337	       -187.18957520	        -21.36692810	        161.14752197	
          0.43333334	       -113.22521973	        253.96649170	         -8.15126896	       -195.35684204	        -23.04873657	        175.12422180	
          0.44166666	       -121.78034210	        238.01560974	          2.53156853	       -202.92617798	        -24.07658005	        187.70393372	
          0.45000002	       -127.45877838	        224.97364807	         12.04412365	       -211.83932495	        -24.26744080	        198.84388733	
          0.45833334	       -131.72247314	        213.27868652	         19.36756516	       -220.61654663	        -23.55275536	        208.29586792	
          0.46666667	       -133.12344360	        206.65647888	         23.37577629	       -230.38975525	        -21.99679184	        216.88366699	
          0.47500002	       -132.54150391	        198.94270325	         23.72479248	       -237.17414856	        -19.77371025	        224.67646790	
          0.48333335	       -129.25816345	        192.52209473	         20.66131210	       -241.79093933	        -17.15107155	        232.39112854	
          0.49166667	       -123.97839355	        186.25561523	         15.49837303	       -243.51295471	        -14.44850922	        240.30915833	
          0.50000000	       -117.50737000	        180.39471436	          9.93907547	       -243.54513550	        -11.98240471	        249.29383850	
          0.50833333	       -110.46174622	        174.11700439	          5.45049238	       -242.14381409	         -9.99776173	        258.98822021	
          0.51666665	       -102.89306641	        168.73300171	          2.78168225	       -240.22428894	         -8.59596062	        269.10720825	
          0.52499998	        -95.55271912	        163.72151184	          1.96287549	       -238.14273071	         -7.74057865	        279.86172485	
          0.53333336	        -90.17047119	        160.57382202	          2.30381346	       -237.14981079	         -7.31636715	        291.40991211	
          0.54166669	        -87.60468292	        158.42913818	          2.66694689	       -236.95265198	         -7.16944456	        303.11224365	
          0.55000001	        -88.36875153	        162.24743652	          1.91170418	       -239.34809875	         -7.13337040	        315.25079346	
          0.55833334	        -91.39897919	        170.28472900	         -0.81498867	       -243.85992432	         -7.06722498	        327.74624634	
          0.56666666	        -96.97258759	        179.90042114	         -5.43400002	       -249.28295898	         -6.88463068	        340.19177246	
          0.57499999	       -103.71337891	        186.10726929	        -11.37394619	       -254.40655518	         -6.58904886	        352.06036377	
          0.58333337	       -109.17330170	        187.93701172	        -17.72364044	       -258.47210693	         -6.23712826	        363.14028931	
          0.59166670	       -111.17709351	        182.53820801	        -23.55748558	       -261.50747681	         -5.90694761	        373.45553589	
          0.60000002	       -108.49060822	        173.00013733	        -28.01024055	       -264.07211304	         -5.69314051	        383.57733154	
          0.60833335	       -102.95868683	        155.42846680	        -30.46265411	       -265.46081543	         -5.70001364	        393.01168823	
          0.61666667	        -94.89466095	        131.61286926	        -30.73329544	       -264.45950317	         -5.99392843	        402.67129517	
          0.62500000	        -86.97110748	        108.41280365	        -29.22571182	       -264.41204834	         -6.56422663	        412.17056274	
          0.63333333	        -80.39556885	         90.42353821	        -26.58104515	       -265.97702026	         -7.31194019	        422.92056274	
          0.64166665	        -78.46234894	         78.48921204	        -23.53908348	       -270.06381226	         -8.10341835	        433.80416870	
          0.64999998	        -79.75144196	         76.52139282	        -20.85022926	       -276.64385986	         -8.81578636	        445.19589233	
          0.65833330	        -83.98605347	         78.05646515	        -19.14462471	       -283.06582642	         -9.35211945	        455.09866333	
          0.66666669	        -87.21907806	         87.37984467	        -18.82875061	       -291.20138550	         -9.67674637	        465.06039429	
          0.67500001	        -89.63955688	         96.18480682	        -19.77754402	       -298.76376343	         -9.82775307	        474.66299438	
          0.68333334	        -89.10944366	        106.31548309	        -21.64388847	       -306.80697632	         -9.90422440	        485.07852173	
          0.69166666	        -86.14337158	        112.28079224	        -24.13490677	       -313.14184570	        -10.01881123	        494.99780273	
          0.70000005	        -80.47295380	        113.94760132	        -26.98280525	       -317.91394043	        -10.24781227	        506.51068115	
          0.70833337	        -73.68183899	        109.47760773	        -30.00974083	       -319.76803589	        -10.61419773	        517.68975830	
          0.71666670	        -65.72964478	        103.74416351	        -33.16575623	       -320.43203735	        -11.09706974	        529.66009521	
          0.72500002	        -56.55306244	         95.91588593	        -36.49903107	       -319.54193115	        -11.64076805	        541.94555664	
          0.73333335	        -45.73881531	         87.12667847	        -40.10032654	       -317.28906250	        -12.18498611	        554.32434082	
          0.74166667	        -33.77646637	         77.13747406	        -43.81096268	       -314.50381470	        -12.67908859	        567.20037842	
          0.75000000	        -22.29751015	         64.52785492	        -47.36644363	       -311.23937988	        -13.09126568	        581.26757813	
          0.75833333	        -12.15166950	         57.91961670	        -50.60989761	       -312.05410767	        -13.41338539	        596.02636719	
          0.76666665	         -5.28724575	         54.80600739	        -53.41880035	       -315.65335083	        -13.64747906	        611.33172607	
          0.77499998	         -1.79816842	         54.38603210	        -55.75527573	       -321.21389771	        -13.79829884	        627.32513428	
          0.78333330	         -2.47080493	         55.56895828	        -57.89432907	       -327.71826172	        -13.86358452	        643.85522461	
          0.79166669	         -4.78650427	         55.61808777	        -60.32036591	       -333.05514526	        -13.83265686	        660.17095947	
          0.80000001	         -7.97561073	         56.63041306	        -63.44157791	       -340.49658203	        -13.69444561	        679.63220215	
          0.80833334	         -9.27580643	         51.16548538	        -67.27574921	       -345.27969360	        -13.43489742	        699.70703125	
          0.81666666	         -9.17525482	         40.27785110	        -71.69012451	       -349.30499268	        -13.03648567	        721.44598389	
          0.82500005	         -6.52630424	         22.02805901	        -76.53059387	       -350.59381104	        -12.48029518	        743.66680908	
          0.83333337	         -2.70000172	          3.27542424	        -81.66942596	       -352.08212280	        -11.74690628	        766.20227051	
          0.84166670	          3.27743769	        -12.34764481	        -87.05044556	       -354.27084351	        -10.82236576	        789.60455322	
          0.85000002	         10.08320332	        -14.90504551	        -92.91967010	       -361.08990479	         -9.70999622	        813.02746582	
          0.85833335	         18.67429352	        -11.71021843	        -99.73900604	       -368.27688599	         -8.43425655	        835.78753662	
          0.86666667	         28.09418869	          0.26413640	       -107.85474396	       -377.44790649	         -7.04486942	        857.79418945	
          0.87500000	         38.69702911	         17.67890549	       -117.10869598	       -388.26943970	         -5.60877848	        879.39843750	
          0.88333333	         49.19031906	         32.54486084	       -126.90877533	       -397.55450439	         -4.20594454	        900.69671631	
          0.89166665	         58.46726608	         38.79037857	       -136.34539795	       -403.00531006	         -2.91531324	        922.36053467	
          0.90000004	         64.57413483	         38.54796219	       -144.15444946	       -405.25112915	         -1.80107975	        942.82543945	
          0.90833336	         66.00151825	         31.24820518	       -148.76930237	       -404.00842285	         -0.91095722	        962.69702148	
          0.91666669	         60.63166809	         20.50578880	       -148.28196716	       -400.88235474	         -0.28948104	        981.25579834	
          0.92500001	         45.06482315	         10.69503307	       -140.54321289	       -397.70370483	          0.00914096	        997.79046631	
          0.93333334	         16.10070992	          1.66250908	       -123.60370636	       -395.27932739	         -0.07954274	       1012.42089844	
          0.94166666	        -29.00760269	         -7.04132605	        -96.43107605	       -393.43707275	         -0.61691445	       1024.00561523	
          0.94999999	        -88.92805481	        -15.55018616	        -59.63718796	       -393.04388428	         -1.63840854	       1033.26599121	
          0.95833331	       -158.66415405	        -23.61264038	        -16.16327095	       -393.68038940	         -3.11838603	       1040.46936035	
          0.96666670	       -227.77955627	        -29.80930328	         28.67322922	       -395.23480225	         -4.93178797	       1046.20593262	
          0.97500002	       -232.28344727	        -36.03833008	         43.79936600	       -395.59213257	         -5.56511354	       1050.23083496	
          0.98333335	         32.68948364	        -42.94317627	        -61.74627686	       -393.12145996	         -4.58387470	       1052.08386230	
          0.99166667	        543.88226318	        -46.55197144	       -264.84378052	       -390.05474854	        -12.92001629	       1053.20129395	
          1.00000000	        279.52661133	        -54.19487762	       -132.86466980	       -382.35528564	        -18.50094032	       1050.54418945	
          1.00833333	         92.10376740	        -64.74470520	        -39.84796906	       -372.19580078	        -25.47452545	       1044.93041992	
          1.01666665	         16.12964249	        -79.53718567	          7.36596394	       -360.09060669	        -38.32903671	       1038.38635254	
          1.02500010	        -42.42272949	        -98.10496521	         44.97996140	       -347.01821899	        -51.37307358	       1030.14965820	
          1.03333330	        -61.75562668	       -116.15139008	         60.70570374	       -334.84338379	        -60.19797516	       1019.64611816	
          1.04166675	          8.56505966	       -132.26565552	         34.27653122	       -322.92410278	        -63.47328949	       1006.79711914	
